HIERARCHY
ROOT Hips
{
	OFFSET 0.00000 0.00000 0.00000
	CHANNELS 6 Xposition Yposition Zposition Zrotation Yrotation Xrotation 
	JOINT LHipJoint
	{
		OFFSET 0 0 0
		CHANNELS 3 Zrotation Yrotation Xrotation
		JOINT LeftUpLeg
		{
			OFFSET 1.44361 -1.63093 0.70831
			CHANNELS 3 Zrotation Yrotation Xrotation
			JOINT LeftLeg
			{
				OFFSET 2.20103 -6.04728 0.00000
				CHANNELS 3 Zrotation Yrotation Xrotation
				JOINT LeftFoot
				{
					OFFSET 2.54154 -6.98283 0.00000
					CHANNELS 3 Zrotation Yrotation Xrotation
					JOINT LeftToeBase
					{
						OFFSET 0.05971 -0.16406 1.77582
						CHANNELS 3 Zrotation Yrotation Xrotation
						End Site
						{
							OFFSET 0.00000 -0.00000 0.90832
						}
					}
				}
			}
		}
	}
	JOINT RHipJoint
	{
		OFFSET 0 0 0
		CHANNELS 3 Zrotation Yrotation Xrotation
		JOINT RightUpLeg
		{
			OFFSET -1.65838 -1.63093 0.70830
			CHANNELS 3 Zrotation Yrotation Xrotation
			JOINT RightLeg
			{
				OFFSET -2.26926 -6.23475 0.00000
				CHANNELS 3 Zrotation Yrotation Xrotation
				JOINT RightFoot
				{
					OFFSET -2.34808 -6.45129 0.00000
					CHANNELS 3 Zrotation Yrotation Xrotation
					JOINT RightToeBase
					{
						OFFSET -0.18633 -0.51195 1.68539
						CHANNELS 3 Zrotation Yrotation Xrotation
						End Site
						{
							OFFSET -0.00000 -0.00000 0.88927
						}
					}
				}
			}
		}
	}
	JOINT LowerBack
	{
		OFFSET 0 0 0
		CHANNELS 3 Zrotation Yrotation Xrotation
		JOINT Spine
		{
			OFFSET -0.10393 2.01691 0.06920
			CHANNELS 3 Zrotation Yrotation Xrotation
			JOINT Spine1
			{
				OFFSET 0.04092 2.01302 -0.05283
				CHANNELS 3 Zrotation Yrotation Xrotation
				JOINT Neck
				{
					OFFSET 0 0 0
					CHANNELS 3 Zrotation Yrotation Xrotation
					JOINT Neck1
					{
						OFFSET -0.02870 1.58978 -0.03113
						CHANNELS 3 Zrotation Yrotation Xrotation
						JOINT Head
						{
							OFFSET 0.11532 1.54326 -0.29195
							CHANNELS 3 Zrotation Yrotation Xrotation
							End Site
							{
								OFFSET 0.04056 1.59999 -0.09535
							}
						}
					}
				}
				JOINT LeftShoulder
				{
					OFFSET 0 0 0
					CHANNELS 3 Zrotation Yrotation Xrotation
					JOINT LeftArm
					{
						OFFSET 3.30641 1.15764 0.01104
						CHANNELS 3 Zrotation Yrotation Xrotation
						JOINT LeftForeArm
						{
							OFFSET 4.63208 -0.00000 0.00000
							CHANNELS 3 Zrotation Yrotation Xrotation
							JOINT LeftHand
							{
								OFFSET 3.41924 -0.00000 -0.00000
								CHANNELS 3 Zrotation Yrotation Xrotation
								JOINT LeftFingerBase
								{
									OFFSET 0 0 0
									CHANNELS 3 Zrotation Yrotation Xrotation
									JOINT LeftHandIndex1
									{
										OFFSET 0.62537 -0.00000 -0.00000
										CHANNELS 3 Zrotation Yrotation Xrotation
										End Site
										{
											OFFSET 0.50419 -0.00000 -0.00000
										}
									}
								}
								JOINT LThumb
								{
									OFFSET 0 0 0
									CHANNELS 3 Zrotation Yrotation Xrotation
									End Site
									{
										OFFSET 0.51189 -0.00000 0.51189
									}
								}
							}
						}
					}
				}
				JOINT RightShoulder
				{
					OFFSET 0 0 0
					CHANNELS 3 Zrotation Yrotation Xrotation
					JOINT RightArm
					{
						OFFSET -3.78081 1.02180 -0.16609
						CHANNELS 3 Zrotation Yrotation Xrotation
						JOINT RightForeArm
						{
							OFFSET -4.40640 -0.00000 -0.00000
							CHANNELS 3 Zrotation Yrotation Xrotation
							JOINT RightHand
							{
								OFFSET -3.44675 -0.00000 0.00000
								CHANNELS 3 Zrotation Yrotation Xrotation
								JOINT RightFingerBase
								{
									OFFSET 0 0 0
									CHANNELS 3 Zrotation Yrotation Xrotation
									JOINT RightHandIndex1
									{
										OFFSET -0.51367 -0.00000 -0.00000
										CHANNELS 3 Zrotation Yrotation Xrotation
										End Site
										{
											OFFSET -0.41414 -0.00000 -0.00000
										}
									}
								}
								JOINT RThumb
								{
									OFFSET 0 0 0
									CHANNELS 3 Zrotation Yrotation Xrotation
									End Site
									{
										OFFSET -0.42046 -0.00000 0.42046
									}
								}
							}
						}
					}
				}
			}
		}
	}
}
MOTION
Frames: 6
Frame Time: .0083333
11.8636 16.2677 0.0701 4.6361 -39.9967 -9.9711 0.0000 0.0000 0.0000 -11.7421 -16.6303 -85.9891 30.2869 17.2453 121.4750 0.3763 -7.2792 -11.3105 8.9489 -16.7747 -55.9131 0.0000 0.0000 0.0000 8.0224 5.1885 -85.7964 -28.8990 -17.9841 116.8910 -0.4297 8.3143 -12.2194 -1.2889 7.1937 -20.2905 2.4848 7.0341 33.9930 13.7507 9.2712 16.0278 10.2312 3.8200 -1.7920 3.3034 1.0682 -11.3704 -8.9059 1.4354 2.0968 -3.5022 0.4111 2.8449 -0.0000 -0.0000 0.0000 -101.5087 -35.1173 69.9769 56.4511 -55.2876 -31.4055 -0.0000 -0.0000 19.1633 16.4158 -34.7570 -9.5344 -7.1250 0.0000 -0.0000 -8.9731 -5.5115 9.9106 -0.0000 -0.0000 0.0000 123.4608 42.0868 92.1869 -146.5898 43.6430 -106.2957 0.0000 -0.0000 -51.0321 75.9042 -13.9817 -43.8964 7.1250 -0.0000 -0.0000 42.8527 -4.3825 63.2680
11.8753 16.2529 0.0827 4.4217 -39.9106 -10.0036 0.0000 0.0000 0.0000 -11.7456 -16.8038 -85.9468 30.3062 17.2341 121.5399 0.3719 -7.0876 -11.2104 8.9797 -16.7946 -56.0199 0.0000 0.0000 0.0000 8.1450 4.8256 -85.7775 -28.9276 -17.9704 116.9834 -0.4058 8.2235 -11.9102 -1.1613 6.8415 -19.2465 2.7983 7.0383 34.2401 13.9195 9.3401 16.2452 10.2246 3.8465 -1.6359 3.4534 0.9685 -10.9490 -8.9920 1.2583 1.6466 -3.5595 0.3386 2.6034 0.0000 0.0000 0.0000 -102.2734 -35.6133 70.2181 56.4122 -55.2755 -31.3736 -0.0000 -0.0000 18.9577 15.1482 -35.2540 -8.8813 -7.1250 0.0000 -0.0000 -9.7236 -5.7725 10.8021 0.0000 0.0000 0.0000 124.0812 41.9020 92.7528 -146.9491 43.3691 -106.5430 0.0000 -0.0000 -51.0325 76.7681 -13.6761 -45.1576 7.1250 -0.0000 -0.0000 42.6839 -3.1764 63.9474
11.8866 16.2457 0.0895 4.4416 -39.8070 -10.0227 0.0000 0.0000 0.0000 -11.8532 -17.0471 -86.0026 30.2982 17.2387 121.5131 0.3629 -6.8128 -11.0339 8.9073 -16.7477 -55.7690 0.0000 0.0000 0.0000 8.0815 4.5020 -85.9330 -28.9500 -17.9595 117.0561 -0.3878 8.0578 -11.6475 -1.0716 6.5804 -18.4782 2.8474 7.0692 34.3343 14.0342 9.3705 16.4119 10.3186 3.8516 -1.5080 3.4967 0.9187 -10.4580 -9.0143 1.1573 1.1384 -3.5670 0.3078 2.3332 0.0000 -0.0000 0.0000 -103.0189 -35.9080 70.2979 56.3902 -55.2687 -31.3555 -0.0000 -0.0000 18.5054 14.1720 -35.4351 -8.3293 -7.1250 0.0000 -0.0000 -10.2729 -5.7799 11.4324 0.0000 -0.0000 0.0000 124.5111 41.6072 93.1677 -147.2676 43.1233 -106.7612 0.0000 -0.0000 -50.9878 77.8311 -13.2099 -46.6609 7.1250 -0.0000 -0.0000 42.4846 -1.5986 64.7680
11.8969 16.2493 0.0969 4.5110 -39.7594 -9.9956 0.0000 0.0000 0.0000 -11.9802 -17.1513 -86.0650 30.2796 17.2496 121.4503 0.3581 -6.5482 -10.9161 8.9500 -16.7755 -55.9171 0.0000 0.0000 0.0000 8.0017 4.3026 -86.0692 -28.9500 -17.9595 117.0561 -0.3864 7.8439 -11.5747 -1.1577 6.8311 -19.2159 2.7483 7.1348 34.3995 14.1627 9.4120 16.5301 10.4985 3.8580 -1.4542 3.6202 0.8881 -9.9169 -9.0926 1.0765 0.6366 -3.6092 0.2869 2.0621 0.0000 -0.0000 0.0000 -103.7450 -36.0064 70.1618 56.3223 -55.2475 -31.2997 -0.0000 -0.0000 17.9486 13.4247 -35.2348 -7.8407 -7.1250 0.0000 -0.0000 -10.6543 -5.4563 11.8168 0.0000 -0.0000 0.0000 124.8679 41.2076 93.6278 -147.6078 42.8577 -106.9932 0.0000 -0.0000 -50.8562 78.6723 -12.8937 -48.0848 7.1250 -0.0000 -0.0000 42.3533 -0.7075 65.0691
11.9051 16.2532 0.1100 4.4263 -39.7863 -9.8709 0.0000 0.0000 0.0000 -11.9737 -17.1398 -86.1316 30.2799 17.2494 121.4513 0.3538 -6.4893 -10.8456 8.9728 -16.7902 -55.9962 0.0000 0.0000 0.0000 8.0622 4.2590 -86.0891 -28.9330 -17.9677 117.0011 -0.4022 7.6162 -11.7166 -1.3212 7.2797 -20.5468 2.7092 7.1848 34.4587 14.3462 9.4473 16.6610 10.7112 3.8594 -1.3853 3.6877 0.8704 -9.2801 -9.1683 1.0220 0.1339 -3.6382 0.2815 1.7763 -0.0000 -0.0000 0.0000 -104.5508 -36.0258 69.8358 56.2225 -55.2163 -31.2177 -0.0000 -0.0000 17.2886 12.1691 -35.0061 -7.0521 -7.1250 0.0000 -0.0000 -11.3102 -5.0280 12.4946 -0.0000 -0.0000 0.0000 125.1635 40.7283 94.0716 -147.8850 42.6387 -107.1814 0.0000 -0.0000 -51.0086 79.5504 -12.4227 -49.3928 7.1250 -0.0000 -0.0000 42.2052 0.5175 65.5420
11.9099 16.2542 0.1239 4.3247 -39.8837 -9.7583 0.0000 0.0000 0.0000 -11.8956 -17.1143 -86.1603 30.2918 17.2425 121.4915 0.3464 -6.6164 -10.7704 8.7441 -16.6402 -55.2008 0.0000 0.0000 0.0000 8.1001 4.3930 -86.0780 -28.9247 -17.9717 116.9741 -0.4167 7.3966 -11.8476 -1.3282 7.2983 -20.6021 2.7949 7.2474 34.5101 14.4577 9.5188 16.8344 10.7718 3.8846 -1.2344 3.7010 0.8323 -8.6460 -9.0911 0.9406 -0.3901 -3.6049 0.2666 1.4813 0.0000 -0.0000 0.0000 -105.4197 -36.0948 69.6345 56.0764 -55.1704 -31.0977 -0.0000 -0.0000 16.9378 10.5556 -34.7864 -6.0684 -7.1250 0.0000 -0.0000 -12.1642 -4.5670 13.3893 0.0000 -0.0000 0.0000 126.6113 40.9579 94.9185 -147.1755 43.1947 -106.6982 0.0000 -0.0000 -51.6208 80.5455 -11.7821 -50.8012 7.1250 -0.0000 -0.0000 42.0405 2.0270 66.0719
